<svg id="visual" viewBox="0 0 960 540" width="960" height="540" xmlns="http://www.w3.org/2000/svg" xmlns:xlink="http://www.w3.org/1999/xlink" version="1.1"><g stroke-width="1" stroke-linejoin="bevel"><path d="M525.6 305.6L424.4 309.6L490.6 353.7Z" fill="#14405e" stroke="#14405e"></path><path d="M525.6 305.6L507.6 213.4L424.4 309.6Z" fill="#26b9ff" stroke="#26b9ff"></path><path d="M424.4 309.6L414.4 382.7L490.6 353.7Z" fill="#092336" stroke="#092336"></path><path d="M414.4 197.4L380.1 277.6L424.4 309.6Z" fill="#195073" stroke="#195073"></path><path d="M424.4 309.6L354.1 380.7L414.4 382.7Z" fill="#2694ce" stroke="#2694ce"></path><path d="M507.6 213.4L414.4 197.4L424.4 309.6Z" fill="#1d6089" stroke="#1d6089"></path><path d="M507.6 213.4L416.4 178.3L414.4 197.4Z" fill="#092336" stroke="#092336"></path><path d="M414.4 197.4L328.1 205.4L380.1 277.6Z" fill="#2694ce" stroke="#2694ce"></path><path d="M380.1 277.6L354.1 380.7L424.4 309.6Z" fill="#195073" stroke="#195073"></path><path d="M613.9 359.7L618.9 307.6L525.6 305.6Z" fill="#031523" stroke="#031523"></path><path d="M525.6 305.6L606.9 232.4L507.6 213.4Z" fill="#0e3149" stroke="#0e3149"></path><path d="M613.9 359.7L525.6 305.6L490.6 353.7Z" fill="#14405e" stroke="#14405e"></path><path d="M379.1 477.9L463.4 450.9L414.4 382.7Z" fill="#195073" stroke="#195073"></path><path d="M414.4 382.7L463.4 450.9L490.6 353.7Z" fill="#14405e" stroke="#14405e"></path><path d="M552.6 438.9L613.9 359.7L490.6 353.7Z" fill="#2482b7" stroke="#2482b7"></path><path d="M618.9 307.6L606.9 232.4L525.6 305.6Z" fill="#26b9ff" stroke="#26b9ff"></path><path d="M507.6 213.4L544.6 150.3L416.4 178.3Z" fill="#1d6089" stroke="#1d6089"></path><path d="M463.4 450.9L552.6 438.9L490.6 353.7Z" fill="#092336" stroke="#092336"></path><path d="M606.9 232.4L544.6 150.3L507.6 213.4Z" fill="#092336" stroke="#092336"></path><path d="M348.1 180.3L328.1 205.4L414.4 197.4Z" fill="#14405e" stroke="#14405e"></path><path d="M380.1 277.6L283.8 307.6L354.1 380.7Z" fill="#14405e" stroke="#14405e"></path><path d="M406.4 55.1L348.1 180.3L416.4 178.3Z" fill="#2171a0" stroke="#2171a0"></path><path d="M416.4 178.3L348.1 180.3L414.4 197.4Z" fill="#0e3149" stroke="#0e3149"></path><path d="M328.1 205.4L283.8 307.6L380.1 277.6Z" fill="#2171a0" stroke="#2171a0"></path><path d="M294.8 410.7L379.1 477.9L354.1 380.7Z" fill="#195073" stroke="#195073"></path><path d="M354.1 380.7L379.1 477.9L414.4 382.7Z" fill="#26b9ff" stroke="#26b9ff"></path><path d="M463.4 450.9L536.6 540L552.6 438.9Z" fill="#0e3149" stroke="#0e3149"></path><path d="M618.9 307.6L668.2 243.4L606.9 232.4Z" fill="#1d6089" stroke="#1d6089"></path><path d="M606.9 232.4L585.9 132.3L544.6 150.3Z" fill="#2171a0" stroke="#2171a0"></path><path d="M690.2 299.6L668.2 243.4L618.9 307.6Z" fill="#092336" stroke="#092336"></path><path d="M666.2 163.3L585.9 132.3L606.9 232.4Z" fill="#1d6089" stroke="#1d6089"></path><path d="M544.6 150.3L406.4 55.1L416.4 178.3Z" fill="#092336" stroke="#092336"></path><path d="M283.8 307.6L294.8 410.7L354.1 380.7Z" fill="#26b9ff" stroke="#26b9ff"></path><path d="M613.9 359.7L690.2 299.6L618.9 307.6Z" fill="#2171a0" stroke="#2171a0"></path><path d="M720.2 391.7L690.2 299.6L613.9 359.7Z" fill="#2171a0" stroke="#2171a0"></path><path d="M374.1 540L446.4 540L379.1 477.9Z" fill="#092336" stroke="#092336"></path><path d="M379.1 477.9L446.4 540L463.4 450.9Z" fill="#14405e" stroke="#14405e"></path><path d="M668.2 243.4L666.2 163.3L606.9 232.4Z" fill="#195073" stroke="#195073"></path><path d="M761.5 183.3L666.2 163.3L668.2 243.4Z" fill="#195073" stroke="#195073"></path><path d="M446.4 540L536.6 540L463.4 450.9Z" fill="#195073" stroke="#195073"></path><path d="M552.6 438.9L644.9 489.9L613.9 359.7Z" fill="#14405e" stroke="#14405e"></path><path d="M270.8 123.3L234.8 249.4L328.1 205.4Z" fill="#26b9ff" stroke="#26b9ff"></path><path d="M328.1 205.4L234.8 249.4L283.8 307.6Z" fill="#26b9ff" stroke="#26b9ff"></path><path d="M168.5 401.7L246.8 473.9L294.8 410.7Z" fill="#195073" stroke="#195073"></path><path d="M619.9 540L644.9 489.9L552.6 438.9Z" fill="#27a6e7" stroke="#27a6e7"></path><path d="M600.9 55.1L548.6 63.1L585.9 132.3Z" fill="#195073" stroke="#195073"></path><path d="M585.9 132.3L548.6 63.1L544.6 150.3Z" fill="#195073" stroke="#195073"></path><path d="M267.8 540L374.1 540L379.1 477.9Z" fill="#26b9ff" stroke="#26b9ff"></path><path d="M548.6 63.1L406.4 55.1L544.6 150.3Z" fill="#27a6e7" stroke="#27a6e7"></path><path d="M348.1 180.3L270.8 123.3L328.1 205.4Z" fill="#2482b7" stroke="#2482b7"></path><path d="M644.9 489.9L720.2 391.7L613.9 359.7Z" fill="#2171a0" stroke="#2171a0"></path><path d="M690.2 299.6L759.5 300.6L668.2 243.4Z" fill="#1d6089" stroke="#1d6089"></path><path d="M337.1 50.1L270.8 123.3L348.1 180.3Z" fill="#0e3149" stroke="#0e3149"></path><path d="M536.6 540L619.9 540L552.6 438.9Z" fill="#195073" stroke="#195073"></path><path d="M644.9 489.9L722.2 450.9L720.2 391.7Z" fill="#092336" stroke="#092336"></path><path d="M700.2 89.1L600.9 55.1L585.9 132.3Z" fill="#2482b7" stroke="#2482b7"></path><path d="M548.6 63.1L498.6 0L406.4 55.1Z" fill="#2171a0" stroke="#2171a0"></path><path d="M294.8 410.7L246.8 473.9L379.1 477.9Z" fill="#0e3149" stroke="#0e3149"></path><path d="M168.5 401.7L294.8 410.7L283.8 307.6Z" fill="#0e3149" stroke="#0e3149"></path><path d="M720.2 391.7L759.5 300.6L690.2 299.6Z" fill="#0e3149" stroke="#0e3149"></path><path d="M666.2 163.3L700.2 89.1L585.9 132.3Z" fill="#031523" stroke="#031523"></path><path d="M713.2 540L722.2 450.9L644.9 489.9Z" fill="#26b9ff" stroke="#26b9ff"></path><path d="M720.2 391.7L787.5 403.7L759.5 300.6Z" fill="#2171a0" stroke="#2171a0"></path><path d="M421.4 0L337.1 50.1L406.4 55.1Z" fill="#195073" stroke="#195073"></path><path d="M406.4 55.1L337.1 50.1L348.1 180.3Z" fill="#2482b7" stroke="#2482b7"></path><path d="M184.5 209.4L171.5 314.6L234.8 249.4Z" fill="#092336" stroke="#092336"></path><path d="M234.8 249.4L171.5 314.6L283.8 307.6Z" fill="#1d6089" stroke="#1d6089"></path><path d="M206.5 89.1L184.5 209.4L270.8 123.3Z" fill="#14405e" stroke="#14405e"></path><path d="M270.8 123.3L184.5 209.4L234.8 249.4Z" fill="#092336" stroke="#092336"></path><path d="M601.9 0L498.6 0L548.6 63.1Z" fill="#195073" stroke="#195073"></path><path d="M498.6 0L421.4 0L406.4 55.1Z" fill="#2171a0" stroke="#2171a0"></path><path d="M796.5 238.4L761.5 183.3L668.2 243.4Z" fill="#2171a0" stroke="#2171a0"></path><path d="M322.1 0L290.8 54.1L337.1 50.1Z" fill="#2694ce" stroke="#2694ce"></path><path d="M337.1 50.1L290.8 54.1L270.8 123.3Z" fill="#2694ce" stroke="#2694ce"></path><path d="M761.5 183.3L700.2 89.1L666.2 163.3Z" fill="#27a6e7" stroke="#27a6e7"></path><path d="M600.9 55.1L601.9 0L548.6 63.1Z" fill="#2694ce" stroke="#2694ce"></path><path d="M195.5 540L267.8 540L246.8 473.9Z" fill="#195073" stroke="#195073"></path><path d="M246.8 473.9L267.8 540L379.1 477.9Z" fill="#2694ce" stroke="#2694ce"></path><path d="M171.5 314.6L168.5 401.7L283.8 307.6Z" fill="#27a6e7" stroke="#27a6e7"></path><path d="M816.5 489.9L787.5 403.7L722.2 450.9Z" fill="#26b9ff" stroke="#26b9ff"></path><path d="M722.2 450.9L787.5 403.7L720.2 391.7Z" fill="#195073" stroke="#195073"></path><path d="M759.5 300.6L796.5 238.4L668.2 243.4Z" fill="#2694ce" stroke="#2694ce"></path><path d="M869.7 326.6L796.5 238.4L759.5 300.6Z" fill="#14405e" stroke="#14405e"></path><path d="M665.2 0L601.9 0L600.9 55.1Z" fill="#14405e" stroke="#14405e"></path><path d="M619.9 540L713.2 540L644.9 489.9Z" fill="#26b9ff" stroke="#26b9ff"></path><path d="M421.4 0L322.1 0L337.1 50.1Z" fill="#092336" stroke="#092336"></path><path d="M290.8 54.1L206.5 89.1L270.8 123.3Z" fill="#27a6e7" stroke="#27a6e7"></path><path d="M265.8 0L206.5 89.1L290.8 54.1Z" fill="#2482b7" stroke="#2482b7"></path><path d="M775.5 0L665.2 0L700.2 89.1Z" fill="#031523" stroke="#031523"></path><path d="M700.2 89.1L665.2 0L600.9 55.1Z" fill="#2171a0" stroke="#2171a0"></path><path d="M806.5 80.1L700.2 89.1L761.5 183.3Z" fill="#27a6e7" stroke="#27a6e7"></path><path d="M168.5 401.7L168.5 494.9L246.8 473.9Z" fill="#195073" stroke="#195073"></path><path d="M168.5 494.9L195.5 540L246.8 473.9Z" fill="#14405e" stroke="#14405e"></path><path d="M322.1 0L265.8 0L290.8 54.1Z" fill="#1d6089" stroke="#1d6089"></path><path d="M713.2 540L763.5 540L722.2 450.9Z" fill="#092336" stroke="#092336"></path><path d="M168.5 401.7L102.3 442.9L168.5 494.9Z" fill="#2171a0" stroke="#2171a0"></path><path d="M171.5 314.6L103.3 337.6L168.5 401.7Z" fill="#092336" stroke="#092336"></path><path d="M59.3 262.4L103.3 337.6L171.5 314.6Z" fill="#0e3149" stroke="#0e3149"></path><path d="M59.3 262.4L171.5 314.6L184.5 209.4Z" fill="#2171a0" stroke="#2171a0"></path><path d="M77.3 55.1L142.5 128.3L206.5 89.1Z" fill="#27a6e7" stroke="#27a6e7"></path><path d="M206.5 89.1L142.5 128.3L184.5 209.4Z" fill="#0e3149" stroke="#0e3149"></path><path d="M103.3 337.6L96.3 385.7L168.5 401.7Z" fill="#0e3149" stroke="#0e3149"></path><path d="M168.5 494.9L61.3 540L195.5 540Z" fill="#1d6089" stroke="#1d6089"></path><path d="M763.5 540L816.5 489.9L722.2 450.9Z" fill="#031523" stroke="#031523"></path><path d="M787.5 403.7L869.7 326.6L759.5 300.6Z" fill="#092336" stroke="#092336"></path><path d="M142.5 128.3L112.3 164.3L184.5 209.4Z" fill="#2171a0" stroke="#2171a0"></path><path d="M103.3 337.6L0 350.7L96.3 385.7Z" fill="#195073" stroke="#195073"></path><path d="M864.7 412.7L869.7 326.6L787.5 403.7Z" fill="#031523" stroke="#031523"></path><path d="M843.7 100.1L806.5 80.1L761.5 183.3Z" fill="#1d6089" stroke="#1d6089"></path><path d="M96.3 385.7L102.3 442.9L168.5 401.7Z" fill="#26b9ff" stroke="#26b9ff"></path><path d="M859.7 133.3L761.5 183.3L796.5 238.4Z" fill="#195073" stroke="#195073"></path><path d="M816.5 489.9L864.7 412.7L787.5 403.7Z" fill="#0e3149" stroke="#0e3149"></path><path d="M265.8 0L196.5 0L206.5 89.1Z" fill="#195073" stroke="#195073"></path><path d="M142.5 128.3L77.3 55.1L112.3 164.3Z" fill="#031523" stroke="#031523"></path><path d="M883.7 540L846.7 492.9L816.5 489.9Z" fill="#2694ce" stroke="#2694ce"></path><path d="M816.5 489.9L846.7 492.9L864.7 412.7Z" fill="#031523" stroke="#031523"></path><path d="M0 235.4L59.3 262.4L112.3 164.3Z" fill="#2482b7" stroke="#2482b7"></path><path d="M112.3 164.3L59.3 262.4L184.5 209.4Z" fill="#14405e" stroke="#14405e"></path><path d="M96.3 385.7L0 445.9L102.3 442.9Z" fill="#092336" stroke="#092336"></path><path d="M960 342.6L889.7 251.4L869.7 326.6Z" fill="#031523" stroke="#031523"></path><path d="M869.7 326.6L889.7 251.4L796.5 238.4Z" fill="#092336" stroke="#092336"></path><path d="M889.7 251.4L859.7 133.3L796.5 238.4Z" fill="#2694ce" stroke="#2694ce"></path><path d="M859.7 133.3L843.7 100.1L761.5 183.3Z" fill="#2482b7" stroke="#2482b7"></path><path d="M806.5 80.1L775.5 0L700.2 89.1Z" fill="#1d6089" stroke="#1d6089"></path><path d="M872.7 0L775.5 0L806.5 80.1Z" fill="#2482b7" stroke="#2482b7"></path><path d="M196.5 0L77.3 55.1L206.5 89.1Z" fill="#031523" stroke="#031523"></path><path d="M960 459.9L960 414.7L864.7 412.7Z" fill="#1d6089" stroke="#1d6089"></path><path d="M864.7 412.7L960 342.6L869.7 326.6Z" fill="#26b9ff" stroke="#26b9ff"></path><path d="M763.5 540L883.7 540L816.5 489.9Z" fill="#26b9ff" stroke="#26b9ff"></path><path d="M0 235.4L0 325.6L59.3 262.4Z" fill="#2171a0" stroke="#2171a0"></path><path d="M59.3 262.4L0 325.6L103.3 337.6Z" fill="#0e3149" stroke="#0e3149"></path><path d="M0 445.9L61.3 540L102.3 442.9Z" fill="#031523" stroke="#031523"></path><path d="M102.3 442.9L61.3 540L168.5 494.9Z" fill="#26b9ff" stroke="#26b9ff"></path><path d="M0 325.6L0 350.7L103.3 337.6Z" fill="#2171a0" stroke="#2171a0"></path><path d="M0 139.3L0 235.4L112.3 164.3Z" fill="#27a6e7" stroke="#27a6e7"></path><path d="M960 414.7L960 342.6L864.7 412.7Z" fill="#27a6e7" stroke="#27a6e7"></path><path d="M889.7 251.4L960 184.3L859.7 133.3Z" fill="#2482b7" stroke="#2482b7"></path><path d="M960 84.1L872.7 0L843.7 100.1Z" fill="#2482b7" stroke="#2482b7"></path><path d="M843.7 100.1L872.7 0L806.5 80.1Z" fill="#195073" stroke="#195073"></path><path d="M960 342.6L960 222.4L889.7 251.4Z" fill="#031523" stroke="#031523"></path><path d="M0 350.7L0 445.9L96.3 385.7Z" fill="#14405e" stroke="#14405e"></path><path d="M960 459.9L864.7 412.7L846.7 492.9Z" fill="#195073" stroke="#195073"></path><path d="M196.5 0L79.3 0L77.3 55.1Z" fill="#2482b7" stroke="#2482b7"></path><path d="M0 102.1L0 139.3L112.3 164.3Z" fill="#14405e" stroke="#14405e"></path><path d="M960 222.4L960 184.3L889.7 251.4Z" fill="#031523" stroke="#031523"></path><path d="M960 84.1L843.7 100.1L859.7 133.3Z" fill="#2171a0" stroke="#2171a0"></path><path d="M0 102.1L112.3 164.3L77.3 55.1Z" fill="#14405e" stroke="#14405e"></path><path d="M883.7 540L960 459.9L846.7 492.9Z" fill="#031523" stroke="#031523"></path><path d="M0 0L0 102.1L77.3 55.1Z" fill="#27a6e7" stroke="#27a6e7"></path><path d="M0 445.9L0 540L61.3 540Z" fill="#2171a0" stroke="#2171a0"></path><path d="M960 184.3L960 84.1L859.7 133.3Z" fill="#2694ce" stroke="#2694ce"></path><path d="M883.7 540L960 540L960 459.9Z" fill="#195073" stroke="#195073"></path><path d="M79.3 0L0 0L77.3 55.1Z" fill="#0e3149" stroke="#0e3149"></path><path d="M960 84.1L960 0L872.7 0Z" fill="#27a6e7" stroke="#27a6e7"></path></g></svg>